<svg xmlns="http://www.w3.org/2000/svg" xmlns:xlink="http://www.w3.org/1999/xlink" viewBox="0 0 242.63 66.25"><path fill="#FFF" d="M0 .19h242.63v66.07H0z"/><defs><path id="a" d="M0 .19h242.63v66.07H0z"/></defs><clipPath id="b"><use xlink:href="#a" overflow="visible"/></clipPath><path clip-path="url(#b)" fill="#22185B" d="M77.65 18.62c-.42-4.6-.94-5.81-3.98-5.81h-1.36v13.83c0 1.23.55 1.44 1.26 1.44h2.25v.91h-9.48v-.91h2.25c.7 0 1.26-.21 1.26-1.44V12.8h-1.36c-3.04 0-3.57 1.2-3.99 5.81h-.86v-6.81h14.88v6.81h-.87zM87.47 29v-.87h.84c.73 0 1.28-.21 1.28-1.44v-6.63c0-.57-.15-2.07-1.8-2.07C85.5 18 84 20.43 84 22.92v3.77c0 1.23.55 1.44 1.29 1.44h.84v.86h-6.81v-.86h1.12c.73 0 1.26-.24 1.26-1.44V14.12c0-1.23-.55-1.44-1.28-1.44h-1.1v-.87h4.69v7.36a4.6 4.6 0 0 1 4.21-2.4c2.18 0 3.49 1.51 3.67 2.9v7.02c0 1.23.52 1.44 1.26 1.44h1.12v.86h-6.8zM100.44 29.23c-4.2 0-5.68-3.1-5.68-5.58 0-3.38 1.93-6.86 5.47-6.86 3.1 0 4.77 2.8 4.82 6.13l-.34.41h-7.6c0 3.17 1.26 4.93 3.67 4.93 2.57 0 3.51-2.1 3.48-3.72h.95c.07 2.23-1.26 4.69-4.77 4.69m-.13-11.42c-1.7 0-2.88 1.75-3.15 4.5h5.5c.22-1.83-.5-4.5-2.35-4.5M125.78 12.69c-.7 0-1.23.2-1.23 1.44v9.14c0 2.33-1.13 6.05-6.08 6.05-4.11 0-5.94-2.56-6.2-4.6v-10.6c0-1.22-.53-1.43-1.24-1.43h-1.7v-.92h8.78v.92h-2.13c-.7 0-1.25.2-1.25 1.44v9.69c0 3.25 2.25 4.35 4.08 4.35 2.41 0 4.4-1.5 4.4-4.9v-9.14c0-1.23-.52-1.44-1.23-1.44h-2.01v-.92h7.51v.92h-1.7zM134.63 28.95v-.86h.84c.73 0 1.28-.21 1.28-1.47V20.1c0-.58-.15-2.07-1.8-2.07-2.28 0-3.49 2.44-3.49 4.95v3.64c0 1.26.55 1.47 1.29 1.47h.83v.86h-6.8v-.86h1.12c.73 0 1.26-.21 1.26-1.47v-7.36c0-1.23-.55-1.44-1.29-1.44h-1.12v-.86h4.53l.15 2.33a4.17 4.17 0 0 1 3.96-2.5c2.17 0 3.48 1.53 3.67 2.92v6.91c0 1.23.52 1.47 1.25 1.47h.95v.86h-6.63zM142.02 28.95v-.86h.91c.74 0 1.29-.21 1.29-1.44v-7.39c0-1.23-.55-1.44-1.29-1.44h-1.12v-.86h4.71v9.69c0 1.23.55 1.44 1.29 1.44h1.12v.86h-6.91zm3.09-14.17c-.79 0-1.44-.7-1.44-1.6 0-.89.65-1.6 1.44-1.6.79 0 1.44.71 1.44 1.6 0 .9-.65 1.6-1.44 1.6M161.06 17.82c-.84 0-1.47.55-1.83 1.5l-3.88 9.63h-1.02l-3.59-9.64c-.45-1.2-1.1-1.49-1.91-1.49h-.84v-.86h7.07v.86h-1.02c-.73 0-1.36.34-.92 1.52l2.47 6.7 2.38-6.3c.37-.95.37-1.92-.79-1.92h-.83v-.86h5.1v.86h-.39zM167.16 29.32c-4.19 0-5.68-3.22-5.68-5.71 0-3.38 1.94-6.97 5.48-6.97 3.09 0 4.76 2.8 4.81 6.13l-.34.42h-7.6c0 3.17 1.26 5.16 3.67 5.16 2.57 0 3.51-2.1 3.49-3.72h.94c.08 2.23-1.26 4.69-4.77 4.69m-.13-11.66c-1.7 0-2.88 1.76-3.14 4.5h5.5c.21-1.82-.5-4.5-2.36-4.5M181.39 20.86c-.84 0-1.29-.7-1.29-1.31 0-.97.55-1.6 1.31-1.89-1.96-.41-3.82 1.97-3.82 5.24v3.72c0 1.23.55 1.47 1.28 1.47h1.39v.86h-7.36v-.86h1.13c.73 0 1.28-.26 1.28-1.47v-7.36c0-1.23-.55-1.44-1.28-1.44h-1.13v-.86h4.5l.14 2.17c.6-1.36 1.86-2.49 3.46-2.49 1.15 0 1.96.95 1.96 2.23 0 1.1-.6 1.99-1.57 1.99M189.27 29.32a4.31 4.31 0 0 1-3.33-1.57l-.65 1.39h-.79v-5.19h.79c.23 1.89 1.57 4.32 3.88 4.32 1.05 0 2.15-.57 2.15-1.75 0-2.8-6.87-2.1-6.87-6.16 0-2.07 1.47-3.72 3.85-3.72 1.13 0 2.28.47 3.01 1.29l.76-1.1h.6v4.58h-.78c-.52-2.51-1.8-3.72-3.48-3.72-1.4 0-2.05.92-2.05 1.81 0 2.99 7 2.07 7 6.1 0 2.2-1.7 3.72-4.09 3.72M194.82 28.95v-.86h.92c.73 0 1.28-.21 1.28-1.44v-7.39c0-1.23-.55-1.44-1.28-1.44h-1.13v-.86h4.72v9.69c0 1.23.55 1.44 1.28 1.44h1.13v.86h-6.92zm3.1-14.17c-.8 0-1.45-.7-1.45-1.6 0-.89.66-1.6 1.44-1.6.79 0 1.44.71 1.44 1.6 0 .9-.65 1.6-1.44 1.6M207.21 29.16c-1.12 0-2.75-.76-3.01-2.38v-8.72h-1.8v-.95c1.67-.34 2.85-1.3 3-5.34h1.08v5.19h3.56v1.1h-3.56v7.8c0 1.16.5 1.78 1.44 1.78 1.05 0 1.62-.8 1.62-1.86v-3.61h1.05v4.03c0 1.42-1.15 2.96-3.38 2.96M223.69 17.82c-.84 0-1.44.53-1.84 1.47l-4.5 10.9c-1.29 3.11-2.2 4.87-4.35 4.87a2.07 2.07 0 0 1-2.04-2.15c0-.94.5-1.94 1.54-1.94.58 0 1.15.63 1.15 1.42 0 .6-.26 1.2-.78 1.6 1.44.47 3.1-2 3.9-5.43l-3.25-9.27c-.41-1.2-1.12-1.47-1.93-1.47H211v-.86h6.79v.86h-1c-.73 0-1.34.32-.92 1.5l2.28 6.52 2.44-6.1c.36-.95.36-1.92-.79-1.92h-.97v-.86h5.24v.86h-.4zM71.21 54.62c-4.79 0-7.43-4.61-7.43-8.7 0-4.97 3.14-9.22 7.46-9.22 5.53 0 7.6 5.69 7.6 8.91 0 5.71-3.43 9.01-7.63 9.01m.19-16.76c-3.7 0-4.98 3.9-4.98 8.04 0 6.18 2.88 7.57 5.06 7.57 2.88 0 4.71-3.1 4.71-7.39 0-3.3-.92-8.22-4.8-8.22M87.17 40.53c-.53 0-1.13-.37-1.13-1.13 0-.6.4-1.1 1.13-1.41-.16-.21-.53-.32-.74-.32-1.23 0-1.94.95-1.94 2.41 0 1.02.24 2.3.48 3.2h2.93v1.1h-2.83v7.57c0 1.23.55 1.44 1.28 1.44h1.4v.86h-7.4v-.86h1.13c.74 0 1.29-.21 1.29-1.44v-7.57h-2.28v-1.1h2.2c-.19-.76-.34-1.94-.34-2.44 0-2.23 1.46-4.14 3.9-4.14 1.6 0 2.46 1.23 2.46 2.02 0 1.31-.97 1.8-1.54 1.8M102.66 54.91c-2.28 0-4.16-1.18-4.87-2.36l-1.07 2H96v-7.63h.86c.42 3.46 2.05 6.94 5.61 6.94 1.96 0 3.38-1.1 3.38-2.98 0-5.71-10.11-2.12-10.11-9.14a4.84 4.84 0 0 1 5.05-4.75c2.26 0 3.52.79 4.5 1.89l.8-1.89h.67v7.26h-.89c-.34-3.59-1.8-6.2-4.79-6.2-2.85 0-3.54 2.06-3.54 3 0 5.3 10.3 2.15 10.3 8.65 0 3.48-2.65 5.21-5.19 5.21M116.76 54.55v-.87h.83c.74 0 1.29-.21 1.29-1.44v-6.52c0-.58-.16-2.07-1.81-2.07-2.28 0-3.48 2.43-3.48 4.92v3.67c0 1.23.55 1.44 1.28 1.44h.84v.86h-6.81v-.86h1.12c.74 0 1.26-.23 1.26-1.44V38.8c0-1.23-.55-1.44-1.28-1.44h-1.1v-.86h4.69v8.33a4.14 4.14 0 0 1 3.93-2.41c2.17 0 3.48 1.51 3.66 2.9v6.92c0 1.23.53 1.44 1.26 1.44h1.13v.86h-6.81zM129.85 54.91c-4.19 0-5.68-3.22-5.68-5.7 0-3.39 1.94-6.98 5.47-6.98 3.1 0 4.77 2.8 4.82 6.13l-.34.42h-7.6c0 3.17 1.26 5.16 3.67 5.16 2.57 0 3.51-2.1 3.49-3.72h.94c.08 2.23-1.26 4.7-4.77 4.7m-.13-11.66c-1.7 0-2.88 1.75-3.14 4.5h5.5c.2-1.83-.5-4.5-2.36-4.5M142.9 39.88c-.53 0-1.13-.37-1.13-1.13 0-.6.4-1.1 1.13-1.41-.16-.24-.71-.48-1.31-.48-1.5 0-2.26 1.26-2.26 2.5 0 1.01.3 2.3.47 3.19h2.65v1.1h-2.57v8.59c0 1.23.55 1.44 1.29 1.44h1.12v.86h-6.86v-.86h.86c.74 0 1.29-.21 1.29-1.44v-8.6h-2.02v-1.1h1.97c-.19-.75-.35-1.93-.35-2.43a4.21 4.21 0 0 1 4.22-4.22c1.68 0 3.04 1.13 3.04 2.18 0 1.23-.81 1.8-1.54 1.8"/><path clip-path="url(#b)" fill="#22185B" d="M153.58 40.61c-.84 0-1.44-.66-1.44-1.47 0-.57.34-1.23.9-1.54-.5-.6-1.27-.82-2.05-.82-2.75 0-4 2.28-3.33 5.77h2.57v1.1h-2.46v8.59c0 1.23.55 1.44 1.28 1.44h1.26v.86h-7v-.86h.87c.73 0 1.28-.21 1.28-1.44v-8.6h-2.01v-1.1h1.96c-.63-3.16 1.02-6.72 5.58-6.72 2.25 0 4.24 1.41 4.24 2.8 0 1.28-.68 1.99-1.65 1.99m-2.4 13.94v-.87h1.01c.74 0 1.29-.21 1.29-1.44v-7.36c0-1.23-.55-1.44-1.29-1.44h-1.12v-.9h4.71v9.7c0 1.23.55 1.44 1.29 1.44h.86v.86h-6.76zM164.4 54.91c-4.2 0-5.68-3.22-5.68-5.7 0-3.39 1.93-6.98 5.47-6.98 3.1 0 4.77 2.8 4.82 6.13l-.34.42h-7.6c0 3.17 1.26 5.16 3.67 5.16 2.57 0 3.51-2.1 3.48-3.72h.95c.08 2.23-1.26 4.7-4.77 4.7m-.13-11.66c-1.7 0-2.88 1.75-3.14 4.5h5.5c.2-1.83-.5-4.5-2.36-4.5M169.82 54.55v-.87h1.13c.73 0 1.28-.21 1.28-1.44V38.8c0-1.23-.55-1.44-1.28-1.44h-1.13v-.86h4.72v15.74c0 1.2.55 1.44 1.28 1.44h1.13v.86h-7.13zM188.55 54.55c-.86 0-1.52-.87-1.54-1.76a3.9 3.9 0 0 1-3.44 1.99c-3.16 0-5.26-2.78-5.26-6.13 0-2.4 1.8-6.4 5.6-6.4 1.1 0 2.15.56 2.86 1.56v-5c0-1.24-.55-1.45-1.28-1.45h-2.52v-.86h6.1v15.69c0 1.25.53 1.49 1.26 1.49h1.13v.86h-2.91zm-4.64-11.22c-1.8 0-3.17 2.28-3.17 5.03 0 3.67 1.37 5.3 3.04 5.3 2.1 0 3.17-1.81 3.17-4.88 0-2.49-.76-5.45-3.04-5.45M194.68 54.8c-.92 0-1.65-.75-1.65-1.67s.73-1.68 1.65-1.68c.91 0 1.65.76 1.65 1.68s-.74 1.68-1.65 1.68M22.22 51.83c-.5-.4-.65-1.16-.56-1.68.11-.57.54-.87.99-.51.2.16.28.32.38.55l.1-.16.08.06-.21.88-.11-.08c.06-.48 0-.85-.26-1.07-.25-.2-.48.05-.59.64-.1.55 0 1.02.25 1.23.28.22.48.17.6-.26l.12.1c-.12.5-.47.56-.8.3M24.03 52.94c-.6-.28-.79-.98-.69-1.46.1-.52.55-.96 1.13-.7.7.32.81 1.07.72 1.5-.11.56-.55.94-1.16.66m.43-1.98c-.26-.12-.53.03-.67.72-.15.73.08 1.01.3 1.11.32.15.54-.13.64-.65.14-.65 0-1.06-.27-1.18M27.42 53.24c-.08-.03-.15-.03-.18.13l-.17.75-.12-.03-.1-.3c-.1.16-.32.23-.62.13-.56-.2-.83-.8-.7-1.4.12-.57.62-1 1.2-.79.25.1.4.25.5.41l.13-.18.1.02-.22.88-.13-.04c.05-.41-.03-.78-.38-.9-.18-.07-.58-.02-.74.76-.13.6.07.98.36 1.08.23.09.33-.01.4-.15l.08-.33c.03-.15-.02-.2-.1-.23l-.2-.06.03-.14 1 .3-.02.13-.12-.04zM29.94 52.67c-.09-.01-.15 0-.16.16l-.26 1.88-.24-.04-.9-1.79-.2 1.25c-.02.14.04.21.13.23l.2.05-.02.14-.86-.2.02-.14.17.04c.08.01.13-.02.16-.17l.25-1.52c.02-.15-.03-.2-.13-.2l-.17-.04.02-.14.66.14.83 1.65.13-1.17c.02-.16-.05-.2-.13-.21l-.2-.04.02-.13.87.15-.02.13-.17-.03zM31.16 54.92c-.67-.06-.95-.69-.91-1.2.04-.56.45-1.17 1.09-1.12.77.06.98.77.95 1.23-.05.6-.46 1.14-1.13 1.09m.2-2.14c-.3-.02-.56.23-.62.97-.06.79.22.97.46 1 .35.02.55-.34.6-.9.04-.7-.15-1.05-.45-1.07M33.62 54.93c-.33.01-.49-.1-.6-.26l-.13.24h-.1l.02-.94h.12c.06.44.22.81.67.8.18-.01.34-.14.34-.33.01-.65-1.17-.18-1.16-1.17 0-.21.18-.62.68-.64.28-.01.43.08.55.22l.1-.25h.1l-.02.9h-.13c-.03-.47-.2-.72-.56-.7-.27 0-.37.2-.37.34 0 .54 1.2.2 1.19 1.07a.7.7 0 0 1-.7.72M35.9 54.7c-.67.1-1.04-.4-1.07-.94-.04-.59.33-1.27.91-1.35.26-.03.41 0 .59.12l.07-.24.1-.02.05.96-.13.02c-.07-.47-.29-.73-.63-.67-.33.06-.5.49-.47 1.1.04.57.27.89.6.83.36-.06.57-.3.58-.78l.16-.03c0 .58-.26.93-.76 1M37.85 52.18c-.08.02-.12.06-.11.18l.04.67.06-.02c.32-.1.36-.12.37-.64l.12-.03.08 1.2-.12.04c-.07-.5-.1-.5-.44-.4l-.06.02.05.76c.01.12.06.12.13.1.14-.03.23-.05.42-.12.33-.09.4-.24.4-.84l.13-.03.09.84c-.7.23-1.24.38-1.95.56v-.14l.18-.05c.08-.03.15-.08.14-.23l-.1-1.56c-.02-.15-.08-.16-.16-.14l-.2.06v-.14c.68-.19 1.34-.37 1.81-.52l.09.82-.12.04c-.1-.57-.27-.6-.53-.53l-.32.1M39.47 53.73l-.02-.13.2-.08c.07-.03.12-.1.1-.25l-.19-1.47c-.02-.15-.08-.15-.16-.12l-.18.08-.02-.14 1.26-.57c.33-.15.62-.03.66.28.03.22-.1.52-.34.67.23.06.3.17.36.63.02.13.09.14.14.1.05-.02.09-.07.08-.16l-.08-.42.14-.07.09.44c.02.16-.06.36-.35.5-.22.1-.43.05-.47-.22-.06-.45-.15-.58-.4-.5l-.19.09.1.75c.01.13.06.13.12.1l.25-.1.02.14c-.35.16-.75.32-1.12.45m.74-2.42l-.15.07c-.07.03-.08.06-.07.14l.09.7.21-.09c.33-.15.41-.44.4-.6-.05-.35-.3-.3-.48-.22M43 49.4l.2.74-.1.08c-.14-.52-.3-.48-.51-.31l-.28.22c-.06.05-.1.1-.07.22l.13.62.07-.05c.24-.19.27-.23.19-.73l.1-.07.25 1.12-.1.07c-.1-.45-.13-.45-.41-.23l-.07.05.14.72c.02.12.06.1.12.05.1-.05.3-.22.39-.29.22-.16.26-.36.18-.92l.1-.08.2.77c-.4.4-1.07.87-1.61 1.23l-.02-.14.16-.1c.09-.07.11-.12.09-.28l-.3-1.43c-.01-.15-.08-.17-.15-.12l-.17.12-.03-.13c.41-.29 1.03-.75 1.5-1.12M11.4 43.6c-.13-.18-.21-.45-.1-.68.19-.39.2-.6.05-.82l-.12-.16-.33.6c-.05.1-.03.15.01.2l.16.2-.05.12-.73-.92.06-.12.11.15c.05.07.1.1.16-.03l.66-1.22c.07-.13.04-.2-.01-.26l-.12-.15.05-.11.82 1.03c.21.27.28.68.15.94-.09.2-.27.2-.46.08.08.3.06.47-.13.86-.05.11-.04.17 0 .22.03.04.07.04.1-.04l.18-.36.12.14-.19.4c-.06.13-.2.16-.38-.07m.37-2.27l-.09-.12c-.04-.05-.06-.05-.1.02l-.3.58.15.18c.21.27.38.17.45.02.14-.3 0-.54-.1-.68M11.78 43.99l.07-.12.14.12c.06.05.12.07.2-.07l.7-1.32c.07-.13.03-.2-.03-.24l-.15-.12.07-.12 1.4 1.16-.38.7-.1-.07c.23-.53.15-.72-.05-.89l-.25-.2c-.05-.05-.1-.05-.15.05l-.31.59.04.03c.25.2.28.22.55-.18l.09.07-.55 1.03-.1-.07c.2-.46.19-.49-.07-.7l-.04-.04-.34.64c-.06.1-.02.15.03.2l.32.26c.2.16.36.13.65-.31l.1.08-.39.72-1.45-1.2zM15.1 46.27c-.21-.11-.34-.33-.22-.58.2-.42.2-.6-.02-.76l-.17-.1-.32.68c-.06.12-.02.16.04.19l.23.12-.06.13-1.03-.57.06-.13.16.1c.08.04.14.04.2-.1l.65-1.37c.07-.14.02-.2-.05-.24l-.17-.09.06-.12 1.17.64c.3.17.44.52.3.8-.1.2-.33.29-.58.25.13.24.12.4-.07.82-.06.12-.03.17.02.2.05.02.1 0 .14-.07l.18-.4.16.09-.2.42c-.06.15-.23.23-.49.09m.23-2.2l-.14-.08c-.06-.03-.09-.02-.12.05l-.3.65.19.1c.3.18.5.01.58-.14.15-.32-.04-.5-.2-.58M18.09 45.22c-.1-.04-.15 0-.24.1l-1.21 1.59-.2-.07.04-2.03c0-.16-.02-.2-.1-.24l-.14-.05.04-.13 1.03.38-.04.14-.16-.06c-.07-.03-.17-.03-.17.13l-.05 1.35.8-1.07c.07-.1.04-.18-.06-.22L17.5 45l.04-.14.7.26-.05.14-.1-.04zM19.3 47.69l.05-.14.17.04c.12.02.16-.02.2-.15l.37-1.27L19 47.6l-.2-.05-.05-1.73-.45 1.26c-.05.16 0 .2.08.22l.17.04-.04.14-.82-.21.04-.14.18.05c.08.02.15 0 .2-.15l.52-1.47c.04-.15-.01-.2-.1-.21l-.17-.05.04-.13.82.2v1.59l1.04-1.34.8.14-.05.14-.18-.03c-.08-.02-.15-.01-.2.14l-.45 1.49c-.04.15.01.2.1.21l.17.04-.04.14-1.1-.21zM45.84 47.73c-.63.14-1.09-.36-1.22-.88-.15-.58.1-1.24.67-1.36.24-.05.4 0 .58.1l.03-.23.1-.02.23.93-.13.03c-.16-.46-.42-.7-.75-.64-.31.07-.41.5-.26 1.09.15.56.44.86.76.8.34-.08.5-.31.42-.79l.16-.03c.11.57-.11.9-.59 1M47.57 47.22l-.04-.14.17-.05c.08-.03.16-.09.07-.22l-.21-.3-.53.17v.37c0 .13.07.17.18.14l.13-.05.05.14-.76.25-.04-.14.14-.05c.1-.03.13-.09.13-.23l.02-2 .2-.07 1.16 1.62c.08.13.13.15.21.12l.18-.05.04.13-1.1.36zm-.53-1.46v.75l.42-.14-.42-.6zM49.62 44.18c-.1.04-.13.11-.13.26v2.07l-.2.09-1.17-1.56c-.09-.11-.13-.14-.2-.1l-.15.06-.04-.13 1.03-.46.04.14-.16.07c-.07.03-.15.1-.06.22l.75 1.02v-1.34c0-.14-.07-.18-.18-.13l-.12.06-.04-.14.69-.3.04.13-.1.04zM51.15 45.66c-.27.16-.43.13-.58.03l-.03.29-.08.04-.27-.9.1-.06c.18.4.43.67.8.45.14-.09.25-.28.2-.46-.19-.62-1.04.36-1.33-.58a.86.86 0 0 1 .39-.92c.23-.14.39-.12.52-.04l.02-.28.07-.05.26.85-.11.07c-.17-.42-.38-.59-.68-.4a.43.43 0 0 0-.2.49c.15.51 1.06-.36 1.3.47.1.35-.01.78-.38 1M52.56 44.58l-.05-.13.14-.11c.06-.06.13-.15.04-.25l-.2-.26-.42.35.03.4c0 .13.07.16.16.08l.1-.08.05.13-.61.5-.05-.13.11-.1c.08-.06.1-.13.1-.29l-.14-2.12.16-.14 1.1 1.35c.08.1.11.11.18.06l.14-.12.05.13-.9.73zM52 43.22l.05.78.35-.28-.4-.5zM54.05 43.18c-.18.25-.32.26-.45.2l.02.3-.06.08-.34-.86.08-.1c.19.36.42.58.68.24a.6.6 0 0 0 .1-.54c-.24-.6-.77.68-1.13-.22-.07-.2-.11-.7.18-1.08.16-.2.28-.23.4-.2l-.03-.3.06-.06.32.82-.08.1c-.19-.4-.38-.5-.59-.23a.62.62 0 0 0-.1.58c.2.49.8-.68 1.1.11.13.33.1.82-.16 1.16"/><path clip-path="url(#b)" fill="#22185B" d="M55.5 40.95a6.31 6.31 0 0 1-1.44-2.88c-.08-.51-.46-.99-1.32-.99-1.04 0-1.94.6-2.44 1.15-.4.45-.62.94-.57 1.36 0 .11.05.2.11.3l1.47 1.76c-2.29 1.82-5.11 2.68-7.7 3.06 4.2-4.14 7-9.82 7-17.94V11.7a79.56 79.56 0 0 0-18-2.24A79.55 79.55 0 0 0 14.6 11.7v15.07c0 8.08 2.76 13.74 6.93 17.87-2.57-.35-5.37-1.17-7.66-3l1.47-1.76c.07-.08.1-.18.12-.3.04-.4-.17-.9-.58-1.35a3.44 3.44 0 0 0-2.44-1.15c-.86 0-1.23.48-1.31.99a6.28 6.28 0 0 1-1.44 2.88c-.85.9-.36 1.8.08 2.39 1.24 1.7 4.36 4.67 11.3 5.63-.2.59-.42 1.12-.66 1.62-.25.56-.04 1.07.74 1.75 1.94 1.68 5.96 3.53 11.44 3.53 5.49 0 9.5-1.85 11.44-3.53.78-.68 1-1.19.74-1.75a14.4 14.4 0 0 1-.65-1.62c6.93-.96 10.15-3.82 11.37-5.68.4-.62.85-1.44 0-2.34M32.6 51.69c-2.92 0-5.22-.75-6.71-1.4.3-.54.53-1.1.7-1.7 1.9 1.2 3.93 2.2 6.03 3.1 2.09-.9 4.13-1.91 6.03-3.1a9 9 0 0 0 .74 1.7 17.13 17.13 0 0 1-6.79 1.4"/><path clip-path="url(#b)" fill="#FFF" d="M22.5 46.48c-.47 0-.6.15-.6.42 0 1.16 2.24 2.63 3.6 3.23.32-.55.57-1.13.76-1.75-.81-.52-1.6-1.07-2.36-1.66a6.18 6.18 0 0 0-1.4-.24M13.01 39.17l-.62 1c.26.34.75.86 1.23 1.27l1.09-1.31c-.55 0-1.25-.35-1.7-.96"/><path clip-path="url(#b)" fill="#FFF" d="M13.02 38.54c.44.77 1.15 1.31 1.82 1.18.22-.05.24-.19.24-.23.04-.32-.1-.66-.44-1.04a2.96 2.96 0 0 0-2.13-1.01c-.77 0-1 .44-1 .86 0 .28.15.86.67 1.59l.84-1.35"/><path clip-path="url(#b)" fill="#FFF" d="M11.24 38.88a6.4 6.4 0 0 1-1.2 2.29c-.52.56-.55 1.16.05 1.97 1.22 1.66 4.24 4.5 11.09 5.45.15-.53.25-1.05.3-1.7 0-.53.4-.75.93-.75.26 0 .58.05.92.12-.45-.37-.9-.76-1.32-1.16-6.53-.85-9.85-3.93-10.77-6.22M39.76 50.1c1.37-.6 3.5-2.04 3.5-3.2 0-.26-.13-.41-.6-.41-.38 0-.85.1-1.35.22-.76.6-1.54 1.15-2.36 1.67.21.6.5 1.16.81 1.71M50.48 40.13l1.09 1.3c.47-.4.97-.91 1.22-1.26l-.62-1c-.44.61-1.14.95-1.69.96"/><path clip-path="url(#b)" fill="#FFF" d="M50.06 39.55c0 .05.01.19.24.23.67.14 1.43-.47 1.87-1.24l.83 1.35c.52-.73.67-1.36.67-1.63 0-.43-.2-.81-.97-.81a3 3 0 0 0-2.15 1c-.35.38-.53.78-.5 1.1"/><path clip-path="url(#b)" fill="#FFF" d="M55.19 41.26a6.9 6.9 0 0 1-1.25-2.38c-.9 2.3-4.22 5.36-10.74 6.22-.43.4-.87.79-1.32 1.16.34-.07.65-.12.9-.12.53 0 .92.23.92.74.06.66.17 1.24.32 1.77 6.85-.94 9.97-3.82 11.06-5.43.57-.84.63-1.4.1-1.96"/><path clip-path="url(#b)" fill="#FFF" d="M43.47 47.68c-1.1 1.86-5.7 4.4-10.88 4.4-5.17 0-9.77-2.54-10.87-4.4-.2 1.22-.52 2.22-.92 3.1-.13.27-.2.62.65 1.36 1.89 1.64 5.75 3.35 11.14 3.35 5.4 0 9.26-1.7 11.15-3.34.84-.73.78-1.09.65-1.36-.4-.88-.73-1.9-.92-3.11"/><path clip-path="url(#b)" fill="#009DE2" d="M32.6 50.5c-9.32-3.9-17.26-10.53-17.26-24.05V12.36a81.1 81.1 0 0 1 17.26-2.24 81.1 81.1 0 0 1 17.27 2.24v14.09c0 13.52-7.95 20.16-17.27 24.05"/><path clip-path="url(#b)" fill="#22185B" d="M22.22 51.83c-.5-.4-.65-1.16-.56-1.68.11-.57.54-.87.99-.51.2.16.28.32.38.55l.1-.16.08.06-.21.88-.11-.08c.06-.48 0-.85-.26-1.07-.25-.2-.48.05-.59.64-.1.55 0 1.02.25 1.23.28.22.48.17.6-.26l.12.1c-.12.5-.47.56-.8.3M24.03 52.94c-.6-.28-.79-.98-.69-1.46.1-.52.55-.96 1.13-.7.7.32.81 1.07.72 1.5-.11.56-.55.94-1.16.66m.43-1.98c-.26-.12-.53.03-.67.72-.15.73.08 1.01.3 1.11.32.15.54-.13.64-.65.14-.65 0-1.06-.27-1.18M27.42 53.24c-.08-.03-.15-.03-.18.13l-.17.75-.12-.03-.1-.3c-.1.16-.32.23-.62.13-.56-.2-.83-.8-.7-1.4.12-.57.62-1 1.2-.79.25.1.4.25.5.41l.13-.18.1.02-.22.88-.13-.04c.05-.41-.03-.78-.38-.9-.18-.07-.58-.02-.74.76-.13.6.07.98.36 1.08.23.09.33-.01.4-.15l.08-.33c.03-.15-.02-.2-.1-.23l-.2-.06.03-.14 1 .3-.02.13-.12-.04zM29.94 52.67c-.09-.01-.15 0-.16.16l-.26 1.88-.24-.04-.9-1.79-.2 1.25c-.02.14.04.21.13.23l.2.05-.02.14-.86-.2.02-.14.17.04c.08.01.13-.02.16-.17l.25-1.52c.02-.15-.03-.2-.13-.2l-.17-.04.02-.14.66.14.83 1.65.13-1.17c.02-.16-.05-.2-.13-.21l-.2-.04.02-.13.87.15-.02.13-.17-.03zM31.16 54.92c-.67-.06-.95-.69-.91-1.2.04-.56.45-1.17 1.09-1.12.77.06.98.77.95 1.23-.05.6-.46 1.14-1.13 1.09m.2-2.14c-.3-.02-.56.23-.62.97-.06.79.22.97.46 1 .35.02.55-.34.6-.9.04-.7-.15-1.05-.45-1.07M33.62 54.93c-.33.01-.49-.1-.6-.26l-.13.24h-.1l.02-.94h.12c.06.44.22.81.67.8.18-.01.34-.14.34-.33.01-.65-1.17-.18-1.16-1.17 0-.21.18-.62.68-.64.28-.01.43.08.55.22l.1-.25h.1l-.02.9h-.13c-.03-.47-.2-.72-.56-.7-.27 0-.37.2-.37.34 0 .54 1.2.2 1.19 1.07a.7.7 0 0 1-.7.72M35.9 54.7c-.67.1-1.04-.4-1.07-.94-.04-.59.33-1.27.91-1.35.26-.03.41 0 .59.12l.07-.24.1-.02.05.96-.13.02c-.07-.47-.29-.73-.63-.67-.33.06-.5.49-.47 1.1.04.57.27.89.6.83.36-.06.57-.3.58-.78l.16-.03c0 .58-.26.93-.76 1M37.85 52.18c-.08.02-.12.06-.11.18l.04.67.06-.02c.32-.1.36-.12.37-.64l.12-.03.08 1.2-.12.04c-.07-.5-.1-.5-.44-.4l-.06.02.05.76c.01.12.06.12.13.1.14-.03.23-.05.42-.12.33-.09.4-.24.4-.84l.13-.03.09.84c-.7.23-1.24.38-1.95.56v-.14l.18-.05c.08-.03.15-.08.14-.23l-.1-1.56c-.02-.15-.08-.16-.16-.14l-.2.06v-.14c.68-.19 1.34-.37 1.81-.52l.09.82-.12.04c-.1-.57-.27-.6-.53-.53l-.32.1M39.47 53.73l-.02-.13.2-.08c.07-.03.12-.1.1-.25l-.19-1.47c-.02-.15-.08-.15-.16-.12l-.18.08-.02-.14 1.26-.57c.33-.15.62-.03.66.28.03.22-.1.52-.34.67.23.06.3.17.36.63.02.13.09.14.14.1.05-.02.09-.07.08-.16l-.08-.42.14-.07.09.44c.02.16-.06.36-.35.5-.22.1-.43.05-.47-.22-.06-.45-.15-.58-.4-.5l-.19.09.1.75c.01.13.06.13.12.1l.25-.1.02.14c-.35.16-.75.32-1.12.45m.74-2.42l-.15.07c-.07.03-.08.06-.07.14l.09.7.21-.09c.33-.15.41-.44.4-.6-.05-.35-.3-.3-.48-.22M43 49.4l.2.74-.1.08c-.14-.52-.3-.48-.51-.31l-.28.22c-.06.05-.1.1-.07.22l.13.62.07-.05c.24-.19.27-.23.19-.73l.1-.07.25 1.12-.1.07c-.1-.45-.13-.45-.41-.23l-.07.05.14.72c.02.12.06.1.12.05.1-.05.3-.22.39-.29.22-.16.26-.36.18-.92l.1-.08.2.77c-.4.4-1.07.87-1.61 1.23l-.02-.14.16-.1c.09-.07.11-.12.09-.28l-.3-1.43c-.01-.15-.08-.17-.15-.12l-.17.12-.03-.13c.41-.29 1.03-.75 1.5-1.12M11.4 43.6c-.13-.18-.21-.45-.1-.68.19-.39.2-.6.05-.82l-.12-.16-.33.6c-.05.1-.03.15.01.2l.16.2-.05.12-.73-.92.06-.12.11.15c.05.07.1.1.16-.03l.66-1.22c.07-.13.04-.2-.01-.26l-.12-.15.05-.11.82 1.03c.21.27.28.68.15.94-.09.2-.27.2-.46.08.08.3.06.47-.13.86-.05.11-.04.17 0 .22.03.04.07.04.1-.04l.18-.36.12.14-.19.4c-.06.13-.2.16-.38-.07m.37-2.27l-.09-.12c-.04-.05-.06-.05-.1.02l-.3.58.15.18c.21.27.38.17.45.02.14-.3 0-.54-.1-.68M11.78 43.99l.07-.12.14.12c.06.05.12.07.2-.07l.7-1.32c.07-.13.03-.2-.03-.24l-.15-.12.07-.12 1.4 1.16-.38.7-.1-.07c.23-.53.15-.72-.05-.89l-.25-.2c-.05-.05-.1-.05-.15.05l-.31.59.04.03c.25.2.28.22.55-.18l.09.07-.55 1.03-.1-.07c.2-.46.19-.49-.07-.7l-.04-.04-.34.64c-.06.1-.02.15.03.2l.32.26c.2.16.36.13.65-.31l.1.08-.39.72-1.45-1.2zM15.1 46.27c-.21-.11-.34-.33-.22-.58.2-.42.2-.6-.02-.76l-.17-.1-.32.68c-.06.12-.02.16.04.19l.23.12-.06.13-1.03-.57.06-.13.16.1c.08.04.14.04.2-.1l.65-1.37c.07-.14.02-.2-.05-.24l-.17-.09.06-.12 1.17.64c.3.17.44.52.3.8-.1.2-.33.29-.58.25.13.24.12.4-.07.82-.06.12-.03.17.02.2.05.02.1 0 .14-.07l.18-.4.16.09-.2.42c-.06.15-.23.23-.49.09m.23-2.2l-.14-.08c-.06-.03-.09-.02-.12.05l-.3.65.19.1c.3.18.5.01.58-.14.15-.32-.04-.5-.2-.58M18.09 45.22c-.1-.04-.15 0-.24.1l-1.21 1.59-.2-.07.04-2.03c0-.16-.02-.2-.1-.24l-.14-.05.04-.13 1.03.38-.04.14-.16-.06c-.07-.03-.17-.03-.17.13l-.05 1.35.8-1.07c.07-.1.04-.18-.06-.22L17.5 45l.04-.14.7.26-.05.14-.1-.04zM19.3 47.69l.05-.14.17.04c.12.02.16-.02.2-.15l.37-1.27L19 47.6l-.2-.05-.05-1.73-.45 1.26c-.05.16 0 .2.08.22l.17.04-.04.14-.82-.21.04-.14.18.05c.08.02.15 0 .2-.15l.52-1.47c.04-.15-.01-.2-.1-.21l-.17-.05.04-.13.82.2v1.59l1.04-1.34.8.14-.05.14-.18-.03c-.08-.02-.15-.01-.2.14l-.45 1.49c-.04.15.01.2.1.21l.17.04-.04.14-1.1-.21zM45.84 47.73c-.63.14-1.09-.36-1.22-.88-.15-.58.1-1.24.67-1.36.24-.05.4 0 .58.1l.03-.23.1-.02.23.93-.13.03c-.16-.46-.42-.7-.75-.64-.31.07-.41.5-.26 1.09.15.56.44.86.76.8.34-.08.5-.31.42-.79l.16-.03c.11.57-.11.9-.59 1M47.57 47.22l-.04-.14.17-.05c.08-.03.16-.09.07-.22l-.21-.3-.53.17v.37c0 .13.07.17.18.14l.13-.05.05.14-.76.25-.04-.14.14-.05c.1-.03.13-.09.13-.23l.02-2 .2-.07 1.16 1.62c.08.13.13.15.21.12l.18-.05.04.13-1.1.36zm-.53-1.46v.75l.42-.14-.42-.6zM49.62 44.18c-.1.04-.13.11-.13.26v2.07l-.2.09-1.17-1.56c-.09-.11-.13-.14-.2-.1l-.15.06-.04-.13 1.03-.46.04.14-.16.07c-.07.03-.15.1-.06.22l.75 1.02v-1.34c0-.14-.07-.18-.18-.13l-.12.06-.04-.14.69-.3.04.13-.1.04zM51.15 45.66c-.27.16-.43.13-.58.03l-.03.29-.08.04-.27-.9.1-.06c.18.4.43.67.8.45.14-.09.25-.28.2-.46-.19-.62-1.04.36-1.33-.58a.86.86 0 0 1 .39-.92c.23-.14.39-.12.52-.04l.02-.28.07-.05.26.85-.11.07c-.17-.42-.38-.59-.68-.4a.43.43 0 0 0-.2.49c.15.51 1.06-.36 1.3.47.1.35-.01.78-.38 1M52.56 44.58l-.05-.13.14-.11c.06-.06.13-.15.04-.25l-.2-.26-.42.35.03.4c0 .13.07.16.16.08l.1-.08.05.13-.61.5-.05-.13.11-.1c.08-.06.1-.13.1-.29l-.14-2.12.16-.14 1.1 1.35c.08.1.11.11.18.06l.14-.12.05.13-.9.73zM52 43.22l.05.78.35-.28-.4-.5zM54.05 43.18c-.18.25-.32.26-.45.2l.02.3-.06.08-.34-.86.08-.1c.19.36.42.58.68.24a.6.6 0 0 0 .1-.54c-.24-.6-.77.68-1.13-.22-.07-.2-.11-.7.18-1.08.16-.2.28-.23.4-.2l-.03-.3.06-.06.32.82-.08.1c-.19-.4-.38-.5-.59-.23a.62.62 0 0 0-.1.58c.2.49.8-.68 1.1.11.13.33.1.82-.16 1.16M20.23 18.27l.26-.35L44.2 32.93l.86.57.12-.16.27-.27c.12.04.54.24.78.4.55.34 1.05 1.1.96 1.59-.46.27-1.39.11-1.94-.24-.23-.15-.6-.44-.68-.52.03-.08.17-.32.25-.46l-21.16-13.4c-.63.02-1.27.1-1.91-.3l-1.58-1.03c.11-.06.44-.25.7-.43l-.64-.4z"/><path clip-path="url(#b)" fill="#FFF" d="M20.33 18.15l.67.42c-.26.18-.58.38-.7.44.5.34 1.3.85 1.54 1 .65.4 1.29.32 1.91.3l20.27 12.84c.68.43 1.69 1.01 2.36 1.34l-.02.03a4.1 4.1 0 0 1-1.55-.66c-.09.14-.15.25-.18.33.09.09.45.38.68.53.55.35 1.45.48 1.9.21.1-.5-.37-1.22-.92-1.57a5.94 5.94 0 0 0-.78-.4 5 5 0 0 0-.34.4L24 19.96c-.22-.55-.38-1.14-1.01-1.55-.25-.15-1.05-.66-1.56-.96l-.17.76-.67-.42-.26.36z"/><path clip-path="url(#b)" fill="#22185B" d="M21.63 18.54c.04-.22.04-.58.04-.66 0-.06.08-.01.09.02.03.15.03.5.06.75l-.19-.11zM22.24 18.92c0-.22-.03-.54-.06-.74-.01-.08.08-.01.1.02.08.22.13.7.15.84l-.2-.12zM23.46 19.7a4.6 4.6 0 0 0-.13-.61c-.06-.15.04-.07.07-.02.11.2.2.52.24.74l-.18-.11zM22.86 19.31c0-.22-.08-.59-.12-.77-.01-.07.09 0 .1.03.1.2.2.73.22.87l-.2-.13zM21.45 18.79c-.2.1-.55.24-.63.28-.06.02.02.07.05.06.16-.02.5-.15.77-.23l-.19-.11zM22.06 19.17a8.3 8.3 0 0 1-.76.22c-.07.02.03.07.06.07.25 0 .75-.14.89-.17l-.2-.12zM23.29 19.94c-.24.05-.53.11-.66.11-.16.01-.04.07.02.07.23.02.58-.02.81-.06l-.18-.12zM22.68 19.56c-.22.08-.61.15-.8.2-.08 0 .02.07.06.07.24 0 .8-.1.94-.14l-.2-.13zM18.88 20.37l.25-.35 23.71 15.01.86.57.12-.16c.12-.12.2-.22.27-.27.12.04.54.24.78.4.55.34 1.05 1.09.96 1.59-.46.26-1.39.11-1.94-.24-.23-.15-.6-.44-.68-.53l.25-.45-21.16-13.4c-.63.01-1.27.1-1.91-.3l-1.58-1.03.7-.43-.64-.4z"/><path clip-path="url(#b)" fill="#FFF" d="M18.97 20.25l.67.42c-.26.18-.58.38-.69.44.49.34 1.29.85 1.53 1 .65.4 1.29.32 1.91.3l20.27 12.84c.68.43 1.7 1.01 2.36 1.34l-.02.03a4.12 4.12 0 0 1-1.55-.66l-.18.33c.09.08.45.38.69.53.55.35 1.44.48 1.9.21.09-.5-.38-1.22-.93-1.57a6.1 6.1 0 0 0-.77-.4 4.8 4.8 0 0 0-.35.4l-21.16-13.4c-.22-.55-.39-1.14-1.02-1.55-.24-.16-1.05-.66-1.56-.96l-.17.76-.67-.42-.26.36z"/><path clip-path="url(#b)" fill="#22185B" d="M20.27 20.64c.04-.22.04-.58.04-.66 0-.06.08-.01.09.02.03.15.03.5.06.75l-.19-.11zM20.88 21.02c0-.23-.03-.54-.06-.74-.01-.08.08-.01.1.02.08.22.13.7.15.84l-.2-.12zM22.1 21.8a4.4 4.4 0 0 0-.13-.62c-.06-.14.04-.06.07 0 .11.2.2.51.24.73l-.18-.12zM21.5 21.41c0-.22-.08-.59-.12-.77-.01-.08.1 0 .1.03.1.2.2.73.22.87l-.2-.13zM20.1 20.88c-.2.11-.56.25-.64.28-.06.03.02.08.05.07.16-.03.51-.15.77-.23l-.18-.12zM20.7 21.27a8.2 8.2 0 0 1-.76.22c-.07.02.03.07.06.07.25 0 .75-.14.89-.17l-.19-.12zM21.93 22.04c-.24.05-.53.1-.66.11-.16 0-.04.07.02.07.23.02.59-.02.81-.06l-.17-.12zM21.32 21.66c-.22.08-.6.15-.8.19-.08.01.02.08.06.08.24 0 .8-.1.94-.15l-.2-.12zM17.51 22.49l.26-.36 23.71 15.02c.26.16.56.36.86.57l.12-.17.27-.27c.12.05.54.25.78.4.55.35 1.05 1.1.96 1.6-.46.26-1.39.1-1.94-.24-.23-.15-.6-.44-.68-.53l.25-.45-21.16-13.4c-.63.01-1.27.09-1.91-.31l-1.58-1.02a11 11 0 0 0 .7-.44l-.64-.4z"/><path clip-path="url(#b)" fill="#FFF" d="M17.61 22.37l.67.42c-.26.18-.58.38-.69.44l1.53 1c.65.4 1.29.32 1.91.3L41.3 37.38c.68.43 1.69 1 2.36 1.34l-.02.02a4.13 4.13 0 0 1-1.55-.65c-.09.13-.15.25-.18.33.09.08.45.38.68.53.55.34 1.45.48 1.9.21.1-.5-.37-1.22-.92-1.57a6 6 0 0 0-.78-.4 4.8 4.8 0 0 0-.34.4l-21.17-13.4c-.22-.55-.38-1.14-1.01-1.55-.25-.16-1.05-.66-1.56-.96l-.17.76-.67-.42-.26.36z"/><path clip-path="url(#b)" fill="#22185B" d="M18.91 22.75c.03-.22.04-.57.04-.66 0-.06.08 0 .09.02.03.15.03.5.06.76l-.19-.12zM19.52 23.13c0-.22-.04-.54-.07-.74 0-.07.09 0 .1.03.1.21.14.7.16.83l-.2-.12zM20.74 23.91c-.03-.22-.1-.5-.13-.6-.06-.15.04-.07.07-.02.11.2.2.52.24.73l-.18-.1zM20.14 23.53c0-.23-.08-.6-.12-.78-.01-.07.1 0 .1.03.1.21.2.73.22.87l-.2-.12zM18.73 23c-.2.1-.55.25-.63.28-.06.02.02.07.05.07.16-.03.5-.16.77-.23l-.19-.12zM19.34 23.38c-.22.08-.55.18-.76.23-.07.01.03.07.06.07.25 0 .75-.14.89-.18l-.2-.12zM20.57 24.16c-.24.05-.53.1-.66.1-.16.01-.04.07.02.08.23.02.59-.02.81-.07l-.17-.11zM19.96 23.78c-.22.08-.61.15-.8.19-.09.01.02.07.06.07.24 0 .8-.1.94-.14l-.2-.12zM16.12 24.59l.26-.36L40.1 39.24l.86.57.12-.16.27-.27c.12.04.54.25.78.4.55.34 1.05 1.1.96 1.6-.46.26-1.39.1-1.94-.25-.23-.14-.6-.44-.68-.52.03-.08.17-.32.25-.46l-21.16-13.4c-.63.02-1.27.1-1.91-.3l-1.58-1.03c.11-.06.44-.25.7-.43l-.64-.4z"/><path clip-path="url(#b)" fill="#FFF" d="M16.22 24.46l.67.43c-.26.18-.58.38-.69.44l1.53 1c.65.4 1.29.31 1.91.3l20.27 12.83c.68.44 1.69 1.01 2.36 1.34l-.02.03a4.12 4.12 0 0 1-1.55-.65c-.09.13-.15.25-.18.32.09.09.45.38.68.53.55.35 1.45.48 1.9.22.1-.5-.37-1.23-.92-1.58a6 6 0 0 0-.78-.4 4.8 4.8 0 0 0-.34.4l-21.17-13.4c-.22-.55-.38-1.14-1.01-1.54-.25-.16-1.05-.67-1.56-.97l-.17.77-.67-.43-.26.36z"/><path clip-path="url(#b)" fill="#22185B" d="M17.52 24.85c.04-.22.04-.58.04-.66 0-.06.08-.01.09.02.03.15.03.5.06.75l-.19-.11zM18.13 25.23c0-.22-.03-.54-.06-.74-.01-.07.08 0 .1.02.08.22.13.7.15.84l-.2-.12zM19.35 26c-.03-.21-.1-.5-.13-.6-.06-.15.04-.07.07-.01.11.2.2.51.24.73l-.18-.11zM18.75 25.62c0-.22-.08-.59-.12-.77-.01-.07.09 0 .1.03.1.2.2.73.22.87l-.2-.13zM17.34 25.1c-.2.1-.55.24-.63.28-.06.02.02.07.05.06.16-.02.5-.15.77-.23l-.19-.11zM17.95 25.48c-.22.08-.55.17-.76.22-.07.02.03.08.06.08.25 0 .75-.14.89-.18l-.2-.12zM19.18 26.25c-.24.05-.53.11-.66.11-.16.01-.04.07.02.07.23.02.59-.02.81-.06l-.18-.12zM18.57 25.87c-.22.08-.61.16-.8.2-.08 0 .02.07.06.07.24 0 .8-.1.94-.14l-.2-.13zM44.97 18.27l-.25-.35L21 32.93a28 28 0 0 0-.86.57l-.12-.16c-.1-.12-.2-.22-.26-.27-.12.04-.55.24-.78.4-.55.34-1.05 1.09-.96 1.59.46.27 1.38.11 1.93-.24.24-.15.6-.44.69-.53a7.72 7.72 0 0 0-.25-.45l21.16-13.4c.62.01 1.27.1 1.9-.3.25-.16 1.1-.7 1.58-1.03-.1-.06-.43-.25-.7-.43l.64-.4z"/><path clip-path="url(#b)" fill="#FFF" d="M44.62 17.8l-.67.42-.18-.77c-.5.3-1.31.81-1.55.97-.64.4-.8.99-1.02 1.54l-21.16 13.4a4.96 4.96 0 0 0-.35-.4c-.11.05-.54.25-.77.4-.56.35-1.02 1.08-.93 1.58.46.26 1.35.13 1.9-.22.24-.15.6-.44.69-.53a2.8 2.8 0 0 0-.18-.32c-.44.28-.98.56-1.55.65l-.02-.03c.67-.33 1.67-.9 2.36-1.34l20.26-12.83c.63.01 1.27.09 1.91-.31.25-.15 1.05-.66 1.53-1l-.69-.44.67-.42-.25-.36z"/><path clip-path="url(#b)" fill="#22185B" d="M43.57 18.54a5.86 5.86 0 0 1-.03-.66c0-.06-.08-.01-.09.02-.04.15-.04.5-.06.75l.18-.11zM42.97 18.92c0-.22.03-.54.06-.74.01-.08-.08-.01-.1.02-.09.22-.13.7-.15.84l.19-.12zM41.74 19.7c.04-.22.1-.5.14-.61.05-.15-.05-.07-.08-.02-.1.2-.2.52-.23.74l.17-.11zM42.35 19.31c0-.22.07-.59.11-.77.02-.07-.09 0-.1.03-.1.2-.2.73-.21.87l.2-.13zM43.75 18.79c.2.1.55.24.64.28.06.02-.02.07-.06.06-.16-.02-.5-.15-.76-.23l.18-.11zM43.15 19.17c.22.08.55.17.75.22.08.02-.02.07-.06.07-.25 0-.74-.14-.88-.17l.19-.12zM41.92 19.94c.23.05.53.11.65.11.17.01.05.07-.01.07a3.3 3.3 0 0 1-.82-.06l.18-.12zM42.52 19.56c.23.08.62.15.81.2.08 0-.02.07-.06.07-.25 0-.8-.1-.94-.14l.2-.13zM46.33 20.37l-.26-.35-23.7 15.01c-.27.17-.57.36-.87.57l-.12-.16c-.11-.12-.2-.22-.27-.27-.11.04-.54.24-.77.4-.55.34-1.05 1.09-.96 1.59.46.26 1.38.11 1.93-.24.24-.15.6-.44.69-.53a7.48 7.48 0 0 0-.25-.45l21.16-13.4c.62.01 1.26.1 1.9-.3.25-.16 1.1-.7 1.58-1.03l-.7-.43.64-.4z"/><path clip-path="url(#b)" fill="#FFF" d="M45.98 19.9l-.67.42-.18-.77-1.55.96c-.64.41-.8 1-1.02 1.55L21.4 35.46a4.75 4.75 0 0 0-.35-.4c-.12.05-.54.25-.78.4-.55.35-1.01 1.07-.92 1.58.46.26 1.35.13 1.9-.22.24-.15.6-.44.68-.53a2.8 2.8 0 0 0-.17-.32c-.45.28-.98.56-1.55.65l-.02-.03c.66-.33 1.67-.9 2.36-1.34L42.8 22.42c.63.01 1.27.1 1.91-.3.25-.16 1.05-.67 1.53-1l-.69-.44.67-.43-.25-.36z"/><path clip-path="url(#b)" fill="#22185B" d="M44.93 20.64a5.86 5.86 0 0 1-.04-.66c0-.06-.07-.01-.08.02-.04.15-.04.5-.06.75l.18-.11zM44.33 21.02c0-.23.03-.54.06-.74 0-.08-.08-.01-.1.02-.09.22-.14.7-.15.84l.19-.12zM43.1 21.8c.04-.23.1-.5.14-.62.05-.14-.05-.06-.08 0-.1.2-.2.51-.24.73l.18-.12zM43.7 21.41c.01-.22.08-.59.12-.77.02-.08-.09 0-.1.03-.1.2-.2.73-.21.87l.2-.13zM45.11 20.88c.2.11.55.25.64.28.05.03-.02.08-.06.07-.16-.03-.5-.15-.76-.23l.18-.12zM44.5 21.27l.76.22c.08.02-.02.07-.06.07-.25 0-.74-.14-.88-.17l.19-.12zM43.28 22.04c.23.05.53.1.65.11.17 0 .05.07-.01.07a3.3 3.3 0 0 1-.82-.06l.18-.12zM43.88 21.66c.23.08.61.15.81.19.08.01-.03.08-.06.08-.25 0-.8-.1-.94-.15l.2-.12zM47.7 22.49l-.27-.36-23.7 15.02a28 28 0 0 0-.87.57l-.12-.17-.26-.27c-.12.04-.54.25-.78.4-.55.35-1.05 1.1-.96 1.6.46.26 1.39.1 1.94-.24.23-.15.6-.44.68-.53a7.4 7.4 0 0 0-.25-.45l21.16-13.4c.62.01 1.27.09 1.9-.31.26-.15 1.1-.7 1.59-1.02-.11-.06-.44-.26-.7-.44l.63-.4z"/><path clip-path="url(#b)" fill="#FFF" d="M47.34 22l-.67.43c-.08-.3-.16-.64-.17-.76-.52.3-1.32.8-1.56.96-.63.4-.8 1-1.02 1.54l-21.16 13.4a4.96 4.96 0 0 0-.35-.4 6 6 0 0 0-.77.4c-.55.36-1.02 1.08-.93 1.58.46.27 1.35.13 1.9-.21.24-.15.6-.45.69-.53l-.18-.33c-.44.28-.98.57-1.55.66l-.02-.03c.67-.33 1.67-.91 2.36-1.34l20.26-12.83c.63 0 1.27.09 1.91-.31l1.54-1-.7-.44.67-.42-.25-.36z"/><path clip-path="url(#b)" fill="#22185B" d="M46.3 22.75a5.86 5.86 0 0 1-.04-.66c0-.06-.08 0-.09.02-.04.15-.04.5-.06.76l.18-.12zM45.69 23.13c0-.22.03-.54.06-.74.01-.07-.08 0-.1.03-.08.21-.13.7-.15.83l.19-.12zM44.46 23.91c.04-.22.1-.5.14-.6.05-.15-.05-.07-.08-.02-.1.2-.2.52-.23.73l.17-.1zM45.07 23.53c0-.23.08-.6.11-.78.02-.07-.08 0-.1.03-.1.21-.2.73-.2.87l.19-.12zM46.47 23c.2.1.56.25.64.28.06.02-.02.07-.05.07-.16-.03-.51-.16-.77-.23l.18-.12zM45.87 23.38c.22.08.55.18.75.23.08.01-.02.07-.06.07-.24 0-.74-.14-.88-.18l.19-.12zM44.64 24.16c.23.05.53.1.65.1.17.01.05.07-.01.08a3.3 3.3 0 0 1-.82-.07l.18-.11zM45.25 23.78c.22.08.6.15.8.19.08.01-.02.07-.06.07-.25 0-.8-.1-.94-.14l.2-.12zM49.08 24.59l-.25-.36L25.1 39.24a28 28 0 0 0-.86.57l-.12-.16-.26-.27c-.12.04-.55.25-.78.4-.55.34-1.05 1.1-.96 1.6.46.26 1.38.1 1.93-.25.24-.14.6-.44.69-.52a7.4 7.4 0 0 0-.25-.46l21.16-13.4c.62.02 1.27.1 1.9-.3.25-.16 1.1-.7 1.58-1.03-.1-.06-.43-.25-.7-.43l.64-.4z"/><path clip-path="url(#b)" fill="#FFF" d="M48.73 24.1l-.67.43-.18-.76-1.55.96c-.63.4-.8 1-1.02 1.54l-21.16 13.4a4.79 4.79 0 0 0-.35-.4c-.11.05-.54.25-.77.4-.55.35-1.02 1.08-.93 1.58.46.27 1.35.13 1.9-.22.24-.15.6-.44.69-.53a2.8 2.8 0 0 0-.18-.32 4.1 4.1 0 0 1-1.55.65l-.02-.03c.67-.32 1.67-.9 2.36-1.34l20.26-12.83c.63.01 1.27.1 1.91-.3.25-.16 1.05-.67 1.53-1l-.69-.44.67-.43-.25-.36z"/><path clip-path="url(#b)" fill="#22185B" d="M47.68 24.85a5.86 5.86 0 0 1-.03-.66c0-.06-.08-.01-.09.02-.04.15-.04.5-.06.75l.18-.11zM47.08 25.23c0-.22.03-.54.06-.74.01-.07-.08 0-.1.02-.09.22-.13.7-.15.84l.19-.12zM45.85 26c.04-.21.1-.5.14-.6.05-.15-.05-.07-.08-.01-.1.2-.2.51-.23.73l.17-.11zM46.46 25.62c0-.22.08-.59.11-.77.02-.07-.09 0-.1.03-.1.2-.2.73-.21.87l.2-.13zM47.86 25.1c.2.1.55.24.64.28.06.02-.02.07-.06.06-.16-.02-.5-.15-.76-.23l.18-.11zM47.26 25.48c.22.08.55.17.75.22.08.02-.02.08-.06.08-.25 0-.74-.14-.88-.18l.19-.12zM46.03 26.25c.23.05.53.11.65.11.17.01.05.07-.01.07-.24.02-.59-.02-.82-.06l.18-.12zM46.63 25.87c.23.08.62.16.81.2.08 0-.02.07-.06.07-.25 0-.8-.1-.94-.14l.2-.13z"/><path clip-path="url(#b)" fill="#00953F" d="M33.25 38.33l-.02-.77c-.01-.08-.05-.1-.1-.07-.04.03-.11.1-.2.15l.02-.36c0-.11-.02-.12-.1-.06-.03.03-.06 0-.08-.04l-.18-.5c-.03-.08-.07-.06-.11.02-.04.09-.15.36-.17.44-.04.1-.05.1-.11.05-.1-.07-.12-.04-.11.02.01.11.08.38.1.53-.05-.08-.14-.17-.2-.23-.05-.06-.1-.03-.1.05l-.01.66.72.5.65-.39zM27.69 41.96l-.56-.2c-.08-.02-.1-.08-.02-.11l.28-.11-.52-.1c-.1-.03-.1-.08-.02-.12.04-.02.04-.03-.01-.07a5.97 5.97 0 0 1-.35-.31c-.06-.06-.07-.1.02-.1l.5-.02c.08 0 .09-.01.05-.07-.06-.08-.05-.12.01-.1.07.02.35.1.44.14l-.06-.23c-.02-.05 0-.09.09-.07.07.02.57.18.74.22l.2.78-.8.47zM29.02 46.5l-.36.54c-.04.07 0 .1.04.1.06 0 .14 0 .25-.02-.06.08-.39.4-.43.46-.04.06.14.03.19.02.04-.01.04 0 .03.07l-.15.48c-.03.08.02.11.1.07.1-.05.37-.24.44-.3.06-.04.07-.04.1.11.02.08.07.16.14.06l.33-.75.03.3c0 .08.06.09.1.01.05-.07.27-.33.4-.52l-.16-.78-1.05.16zM34.94 47.37l.4.53c.06.06.1.05.12 0l.07-.2.24.33c.04.06.07.08.1-.01.01-.1.02-.1.09-.06l.38.26c.06.05.12.03.1-.06 0-.1-.06-.38-.09-.46-.02-.08-.02-.07.06-.06.17.01.14-.05.07-.14l-.36-.37c.08.04.21.06.29.07.12.02.14-.02.07-.1l-.44-.53-.98-.14-.12.94zM37.17 42.04c.17-.06.63-.17.73-.19.07-.01.1-.05.03-.11l-.18-.14.38-.15c.07-.02.01-.07-.04-.1s-.05-.04 0-.08l.44-.3c.07-.05.05-.08-.05-.1h-.46c-.08 0-.1 0-.07-.08.03-.12.02-.15-.08-.11-.1.04-.31.17-.45.23.06-.07.1-.18.12-.25.04-.13.01-.13-.07-.1-.08.04-.43.14-.64.21l-.45.89.8.38z"/><path clip-path="url(#b)" fill="#22185B" d="M38.48 40.87h-.46c-.08 0-.1 0-.07-.08.03-.12.02-.15-.08-.11-.11.04-.31.17-.45.23.06-.07.1-.18.12-.25.04-.13.01-.13-.07-.1l-.57.18c-.1-1-1.4-2.5-3.4-2.5-.1 0-.18 0-.26.02l-.01-.7c-.01-.09-.06-.1-.1-.07l-.2.15.02-.36c0-.12-.02-.12-.1-.06-.04.03-.07 0-.08-.04l-.19-.5c-.02-.08-.06-.06-.1.02-.05.09-.15.36-.17.44-.04.1-.05.1-.12.05-.09-.08-.11-.04-.1.02.01.11.08.38.1.53-.05-.08-.15-.17-.2-.23-.05-.06-.1-.04-.1.05l-.01.53h-.05c-1.38 0-3.43 1.1-3.6 2.6l-.7-.2c-.08-.02-.1.02-.09.07l.07.23-.44-.15c-.06-.02-.07.02-.01.1.04.07.03.07-.05.08l-.5.01c-.09 0-.09.04-.02.1.07.08.28.27.34.32.06.04.05.05.02.07-.07.04-.09.09.02.12.11.02.37.06.52.1l-.28.1c-.08.04-.06.1.02.13l.45.15c-.17.31-.27.79-.27 1.43 0 1.75.67 2.97 1.68 3.2l-.33.48c-.04.07 0 .1.04.1.05.01.14 0 .25-.01-.06.08-.4.4-.43.46-.05.06.13.02.19.01.04 0 .04 0 .02.08-.01.08-.12.4-.15.48-.02.07.03.1.11.07l.44-.3c.06-.04.07-.04.1.11.02.08.07.16.13.06s.27-.57.34-.75l.02.3c.01.08.07.09.11.01l.27-.35c.36.68 1.46 1.02 2.6 1.02 1.5 0 2.12-.36 2.37-.78.1.15.23.32.27.36.05.06.1.04.12 0l.07-.2.23.33c.05.06.08.08.1-.01.02-.1.03-.1.1-.05.07.03.3.2.37.25.07.05.13.03.12-.06a5.9 5.9 0 0 0-.1-.46c-.02-.08-.02-.07.06-.06.17.01.14-.05.07-.13-.08-.1-.26-.27-.37-.38.09.04.22.06.3.07.11.02.14-.02.06-.1l-.36-.43c.85-.3 1.8-1.65 1.8-3.42 0-.6-.23-1.01-.53-1.27l.52-.13c.07-.01.1-.05.03-.11a2.3 2.3 0 0 0-.19-.14l.39-.15c.07-.02.01-.07-.04-.1-.06-.03-.06-.04 0-.08l.44-.3c.07-.05.04-.08-.05-.1m-11.07.32l.81.29a.72.72 0 0 0-.57.33l-.36-.1.23-.13c.1-.05.1-.12-.09-.14l-.43-.07.11-.06a4.5 4.5 0 0 0-.44-.37c.11.01.44 0 .6-.02l-.07-.12.37.13c.06.03.12-.02.1-.07l-.04-.2c.07.02.35.14.59.2v.05c0 .15.04.29.13.42-.33-.09-.82-.19-.9-.22-.12-.05-.21.02-.04.08m2.42 6.3l-.03-.25c-.02-.11-.14-.1-.18.03l-.3.63-.05-.2-.52.35c.06-.1.15-.44.17-.6l-.18.04c.04-.06.33-.36.38-.42.05-.05.02-.09-.05-.08h-.23c.04-.04.18-.22.3-.4l.2.01c.12 0 .3-.02.48-.1l-.58.83c-.08.1-.04.2.07.05l.7-.83c-.05.23-.03.44.03.62l-.2.32m2.85-8.9c-.01-.34-.08-.92-.08-1.01 0-.13-.1-.19-.09 0l-.01.93c-.15-.24-.3-.36-.5-.4 0-.14 0-.33-.02-.42l.18.18c.08.08.17.01.13-.12-.03-.08-.1-.44-.1-.44l.12.09c.03-.06.15-.36.21-.55.02.11.13.44.2.58l.12-.1-.03.4c0 .06.06.1.1.08.04-.03.1-.07.18-.15 0 .08-.03.39 0 .63a.68.68 0 0 0-.4.3m3.6 8.46l-.25-.04c-.11-.01-.14.1-.03.18.07.05.33.34.33.34l-.18-.02c.04.08.1.33.14.54-.08-.09-.36-.25-.5-.34l-.03.16a6.12 6.12 0 0 1-.21-.34c-.03-.06-.09-.06-.1-.01l-.1.23a4.9 4.9 0 0 0-.23-.36c.08-.22.08-.45.06-.65l.66.75c.07.1.19.1.08-.05-.09-.11-.38-.51-.56-.78.14.06.25.07.4.07a.9.9 0 0 0 .2-.02l.32.34m1.54-5.74l.14.1c-.06.02-.3.1-.36.1-.12.03-.09.07-.03.12.04.04.11.07.19.13-.07.01-.31.05-.53.11a1.3 1.3 0 0 0-.53-.2l.87-.39c.12-.04.14-.15-.03-.09l-.94.32a.81.81 0 0 0 .29-.63l.48-.16-.1.22c-.05.12-.05.18.14.07l.38-.18v.15c.06.02.32 0 .52 0-.1.05-.38.22-.5.33"/><path clip-path="url(#b)" fill="#FFF" d="M34.03 45.12c.1.23.94 1.09.94 1.66 0 .93-.8 1.21-2.23 1.21-1.84 0-2.55-.74-2.55-1.26 0-.46.5-1.14.95-1.63.2-.22-.1-.42-.23-.17-.14.28-.8 1.46-1.46 1.46-1.34 0-1.87-1.93-1.87-3.4 0-.82.27-1.33.86-1.33.29 0 .93.38 1.88.67.28.09.46-.23.07-.27-.9-.1-1.96-.54-1.96-1.14 0-1.4 2.53-2.63 3.34-2.63.78 0 .86 1.18.76 2.59-.02.26.3.25.29-.01-.04-.35-.07-1.27-.11-1.66-.04-.35.18-.76.8-.76 1.46 0 3.18 1.57 3.18 2.42 0 .54-.9 1.04-1.99 1.25-.3.05-.1.38.14.25.35-.18 1.15-.5 1.68-.5.5 0 1.06.42 1.06 1.27 0 1.94-1.07 3.4-1.78 3.4-.65 0-1.16-.87-1.54-1.56-.1-.18-.33-.1-.23.14"/><path clip-path="url(#b)" fill="#22185B" d="M33.1 40.77c-.01-.13-.1-.93-.1-1.13 0-.6.17-.87.59-.87.42 0 .87.7 1.28.7.1 0 .2-.06.26-.12.05-.06.14-.01.12.06-.02.08-.03.18-.03.28 0 .6 1.1.55 1.1 1.1 0 .72-1.2 1.01-1.6 1-.22 0-.12-.07-.03-.07.7 0 1.5-.5 1.5-.9 0-.52-1.35-.43-1.06-1.33-.62.45-1.01-.56-1.52-.56-.29 0-.46.18-.46.7l.03 1.13c.02.19-.08.13-.09 0M30.57 41.77c-.22-.11-.88-.22-1.07-.28-.67-.21-.72-.57-.64-.82.11-.38.95-.6 1.08-1.01a.33.33 0 0 0-.04-.29c-.05-.05.02-.13.08-.1.05.04.2.1.27.13.54.17.91-.88 1.43-.7.8.25.38 1.65.4 2 0 .13-.1.18-.11.03-.03-.34.34-1.66-.36-1.88-.5-.16-.76 1.14-1.58.57.18.71-.85.83-1 1.28-.08.28.13.55.54.68.17.06.9.22 1.04.33.07.05.1.13-.04.06M30.7 44.5c-.1.15-.42.81-.54.97-.35.48-.84.54-1.15.32-.3-.22-.32-1.13-.6-1.33a.36.36 0 0 0-.29-.06c-.07.02-.13-.06-.06-.1a.9.9 0 0 0 .2-.22c.3-.49-.6-1.1-.22-1.6.4-.55 1.6-.02 2.06.31.11.09.12.2 0 .11-.68-.43-1.61-.73-1.91-.32-.3.42.79 1.15.03 1.72.73 0 .52 1.06.9 1.34.22.15.64.1.9-.2.13-.14.54-.87.61-1 .07-.13.15-.08.07.07M33.63 45.34c.08.12.52.65.66.8.4.4.37.83.12 1.06-.3.3-1.15-.06-1.5.22-.08.06-.13.2-.13.26-.02.11-.12.1-.14.03-.02-.06-.1-.21-.15-.26-.33-.46-1.25.07-1.6-.35-.43-.5.21-1.4.56-1.7.1-.1.2-.05.1.03-.6.51-.78 1.26-.58 1.53.3.42 1.47-.32 1.72.6.28-.76 1.18-.2 1.57-.49.21-.15.2-.5-.04-.82-.1-.15-.6-.74-.67-.85-.06-.1 0-.17.08-.05M35.05 42.68c.33-.04.76-.12 1-.23.52-.26.9-.09 1 .3.1.36-.3 1.1-.19 1.5.03.08.15.18.2.2.06.01.06.13 0 .13-.08 0-.21.02-.3.06-.54.18-.28 1.16-.8 1.33-.72.23-1.36-.86-1.44-1.2-.06-.2.03-.18.06-.09.3.73.91 1.26 1.31 1.12.5-.16.09-1.3 1.04-1.31-.57-.47.11-1.25-.03-1.7-.1-.3-.37-.4-.8-.22-.4.16-.83.2-1.06.2-.15 0-.22-.07 0-.1"/><path clip-path="url(#b)" fill="#22185B" d="M36.25 44.2a18.2 18.2 0 0 0-1.83-.53c.32.06 1.38-.15 1.66-.3.07-.03.07-.15-.05-.11a9.3 9.3 0 0 1-1.62.33c.05-.17.09-.35.09-.54a1.85 1.85 0 0 0-.68-1.37c.48-.36 1.23-.6 1.4-.63.16-.02.19-.15.04-.15a3 3 0 0 0-1.5.74h-.01c.24-.36.9-1.35 1.02-1.47.14-.13 0-.2-.08-.14s-.83 1.16-1.05 1.53c.14-.35.26-1.33.2-1.62-.01-.08-.12-.12-.13 0 0 .19-.05 1.02-.17 1.57a2.38 2.38 0 0 0-1.03-.22c-.36 0-.63.1-.87.26a3.74 3.74 0 0 1-.21-1.7c.03-.16-.1-.23-.14-.09-.05.19-.07 1.26.3 1.74-.18-.23-1.06-1.33-1.14-1.5-.09-.17-.2-.07-.16.04.03.1.93 1.24 1.17 1.5-.23-.23-1.2-.69-1.51-.73-.09-.01-.15.08-.04.12.2.07 1.15.44 1.58.74a1.8 1.8 0 0 0-.75 1.58c0 .12.01.23.04.35-.64.01-1.51-.42-1.67-.54-.13-.09-.23-.02-.12.08.15.14 1.1.63 1.69.52-.29.05-1.65.33-1.85.34-.2.02-.15.15-.04.16.1.02 1.53-.27 1.87-.37-.3.1-1.15.77-1.33 1.03-.05.07 0 .17.1.08.15-.14.95-.88 1.4-1.12.13.39.4.72.85.92.23.1.52.2.83.24-.14.66-.67 1.4-.81 1.54-.12.1-.06.23.06.14.15-.12.8-.97.78-1.57 0 .28.07 1.7.04 1.87-.03.2.12.17.15.07s-.02-1.55-.06-1.9c.05.31.57 1.26.8 1.47.06.06.16.03.1-.07-.22-.32-.7-1-.85-1.55.49-.02 1.15-.28 1.43-.75l.18-.36a3.92 3.92 0 0 1 1.12 1.2c.06.14.2.13.15-.01-.06-.19-.68-1.06-1.25-1.24.27.09 1.63.46 1.8.55.17.09.19-.06.1-.12"/><path clip-path="url(#b)" fill="#FFEC00" d="M32.57 42.8c.18 0 .3.16.3.26a.3.3 0 0 1-.27.29c-.13 0-.27-.13-.27-.28 0-.14.12-.27.24-.27M31.86 42.63c.16 0 .23.18.23.28 0 .14-.14.27-.26.27-.11 0-.2-.13-.2-.26s.12-.3.23-.3M32.03 43.37c.16 0 .24.14.24.23 0 .14-.1.26-.21.26-.12 0-.3-.08-.3-.22 0-.13.16-.27.27-.27M32.8 43.65c.17 0 .25.14.25.23 0 .14-.1.26-.21.26-.12 0-.25-.12-.25-.25s.11-.24.22-.24M33.3 43.16c.17 0 .25.14.25.24 0 .14-.1.25-.21.25-.12 0-.25-.11-.25-.24 0-.14.11-.25.21-.25M33.15 42.33c.16 0 .28.18.28.27 0 .14-.1.26-.22.26-.11 0-.24-.12-.24-.25s.08-.28.18-.28M33.94 42.33c.15 0 .23.14.23.23 0 .13-.1.25-.2.25-.12 0-.25-.11-.25-.25 0-.12.11-.23.22-.23M33.35 41.66c.16 0 .24.13.24.22 0 .13-.1.25-.21.25-.11 0-.24-.11-.24-.24s.1-.23.21-.23M33.99 43.24c.16 0 .24.13.24.22 0 .14-.12.3-.24.3-.11 0-.21-.16-.21-.29 0-.13.1-.23.21-.23M33.47 44c.16 0 .33.1.33.2 0 .13-.18.32-.3.32-.1 0-.26-.06-.26-.19s.13-.34.23-.34M32.41 44.23c.16 0 .35.2.35.29 0 .13-.14.22-.26.22-.11 0-.24-.1-.24-.24 0-.13.05-.27.15-.27M31.61 44c.16 0 .3.13.3.23 0 .13-.15.25-.27.25-.11 0-.24-.11-.24-.24s.11-.24.21-.24M31.17 43.24c.16 0 .23.13.23.22 0 .14-.09.25-.2.25-.12 0-.24-.1-.24-.24 0-.12.1-.23.2-.23M31.26 42.3c.15 0 .23.13.23.22 0 .14-.14.3-.25.3-.11 0-.2-.16-.2-.29 0-.12.11-.23.22-.23M32.59 41.46c.15 0 .23.13.23.22 0 .14-.1.25-.2.25-.12 0-.24-.11-.24-.24s.1-.23.2-.23M31.74 41.69c.15 0 .23.13.23.22 0 .14-.1.25-.2.25-.12 0-.25-.11-.25-.24s.11-.23.22-.23M32.4 42.11c.16 0 .24.14.24.23 0 .14-.1.26-.21.26-.12 0-.25-.11-.25-.25 0-.13.11-.24.22-.24"/><path clip-path="url(#b)" fill="#22185B" d="M32.58 10.61c.94 0 1.32.6.93 1.54.18 0 .26-.18.38-.55.66.26.76 1.02.22 1.48.33-.16.61-.13.81.02-.27.16-.35.3-.33.45.2-.15.38-.3.78-.3.42 0 .85.27.85.94 0 1.02-.64 1.12-1.46.93 0 .04.15.23.3.3-.67.2-1.47.02-2.03-.3.32 1.01 1.88 1.43 3.05.47.47 1.23 2.38 1.41 3.24.37-.8.37-1.68.16-2.1-.24.16-.04.44-.15.55-.3-.65 0-.94-.25-.94-.75s.52-1.04 1.12-1.04c.43 0 .64.3.8.66.08-.15.08-.48.05-.76.76-.03.9.44 1.04.73.23-.99.9-1.7 2.34-1.44-.24.25-.42.5-.56.81.18-.15.42-.36.92-.36.64 0 .98.45.98.89 0 .46-.3.78-.51.94-.31-.53-.72-.6-1-.6-.84 0-1.2.36-1.3.64.25.49-.06.88-.6.82-.1.18-.68 1.22-.87 1.45.13.39.1.86-.2 1.28 0 .09-.06.5-.07.58.08.04.19.16.19.3 0 .82-2.95 1.13-6.62 1.13-1.9 0-6.62-.22-6.62-1.09 0-.15.08-.24.2-.32-.02-.06-.05-.53-.06-.59a1.29 1.29 0 0 1-.11-1.22c-.2-.23-.83-1.34-.93-1.51-.69 0-.77-.46-.55-.85-.3-.34-.7-.66-1.29-.66-.42 0-.72.09-1 .52-.2-.15-.46-.38-.46-.84 0-.53.46-.85.9-.85s.72.18.97.44a3.3 3.3 0 0 0-.56-.93c1.42-.24 2.07.51 2.3 1.5.13-.29.35-.82 1.11-.8-.05.28-.06.52.01.72.18-.28.36-.6.76-.6.55 0 1.15.65 1.15 1.13 0 .49-.35.7-1.07.66.12.15.3.26.54.32-.4.41-1.21.53-2.04.2.97 1.15 2.81.83 3.25-.33 1.03.96 2.79.55 3.13-.5-.62.4-1.4.47-2.06.34a.84.84 0 0 0 .27-.31c-.9.24-1.4-.03-1.4-.92 0-.52.37-.94.8-.94.27 0 .56.1.81.3.02-.15-.05-.29-.32-.45.2-.15.45-.2.79-.04-.49-.42-.46-1.23.25-1.48.1.34.19.57.35.6-.38-1-.01-1.59.92-1.59"/><path clip-path="url(#b)" fill="#FFEC00" d="M23.61 14.07c-.28-.48-.64-.57-.92-.56a.71.71 0 0 0-.73.69c0 .2.07.36.16.43.18-.23.51-.66 1.5-.56M43.06 14.65c.1-.09.16-.3.16-.48 0-.39-.3-.67-.75-.67-.44 0-.68.15-.94.52 1.01-.07 1.3.3 1.53.63M32.54 20.49c2.76.02 6.2-.28 6.2-.87 0-.38-2.83-1-6.18-1-3.4 0-6.15.62-6.15 1 0 .35 2.91.84 6.13.87"/><path clip-path="url(#b)" fill="#FFEC00" d="M32.54 20.49c2.76.02 6.2-.28 6.2-.87 0-.38-2.83-1-6.18-1-3.4 0-6.15.62-6.15 1 0 .35 2.91.84 6.13.87"/><path clip-path="url(#b)" fill="#FFEC00" d="M25.11 15.76c.12.2.92 1.48 1.03 1.62.34.07.91.15 1.1.19.22.04.3.4.1.51-.18.11-.9.66-1.01.74l.03.36c1.61-.6 3.72-.8 6.22-.8 3.02 0 4.8.34 6.16.82l.06-.44c-.47-.27-.9-.58-1.06-.71-.17-.14-.06-.46.1-.5.33-.1.82-.19 1.23-.27.04-.04.81-1.27.97-1.56.05-.14.24-.45.41-.54.32-.69 1.01-.97 2.04-.8-.35-.25-.9-.2-1.1-.15-.04.02-.14 0-.13-.09.12-.48.21-.76.47-1.13-1.31-.07-1.74.97-1.78 1.62 0 .08-.16.14-.18.05-.09-.4-.3-.9-.78-.98 0 .3.01.54-.1.74-.07.12-.23.08-.25.03-.17-.37-.38-.6-.62-.6-.39 0-.58.22-.45.43.05.08-.03.12-.12.1-.2-.06-.36.03-.36.33 0 .38.33.56.85.5.12-.01.17.08.1.16-.05.09-.25.26-.38.34.11.1.43.2.93.2.43 0 .86-.15 1.02-.3.07-.07.2-.01.14.16-.34.93-2.57 1.9-3.78.16-1.03.75-2.66.64-3.2-.8-.05-.17.1-.34.29-.22.13.08.56.3.99.35.16.02.43.05.61.01-.07-.1-.16-.27-.18-.32-.03-.1.06-.15.17-.08.12.07.21.15.5.15.48 0 .74-.37.74-.52 0-.2-.11-.25-.26-.28-.07 0-.08-.1-.03-.12.15-.07.2-.15.2-.3 0-.17-.18-.35-.51-.35-.27 0-.52.13-.7.22a.13.13 0 0 1-.16-.05c-.04-.1-.04-.27.12-.5-.21-.05-.87.19-1.42.72-.09.08-.22-.1-.15-.15.74-.46 1.23-.93 1.23-1.32 0-.23-.1-.39-.23-.48-.14.3-.38.47-.53.47-.07 0-.16-.05-.14-.1.03-.1.13-.47.13-.7 0-.38-.24-.68-.47-.68-.17 0-.28.1-.32.2-.02.07-.12.06-.15 0-.08-.15-.17-.2-.31-.2-.25 0-.47.3-.47.66 0 .33.14.66.14.72 0 .06-.1.1-.17.1-.26 0-.44-.23-.5-.47-.13.06-.21.3-.21.49 0 .44.4.78 1.2 1.32.08.04-.02.22-.11.14-.61-.5-1.2-.75-1.42-.7.16.3.13.41.09.52-.03.04-.14.07-.18.04-.18-.09-.4-.22-.6-.22-.35 0-.55.2-.55.45 0 .05.05.17.19.22.04.01.02.1-.03.1a.25.25 0 0 0-.22.25c0 .26.24.48.6.48.28 0 .5-.05.61-.15.1-.08.18 0 .14.1l-.18.36c.51.04 1.14-.07 1.6-.37.18-.1.3.08.27.2-.2 1.03-1.89 1.8-3.2.85-1.34 1.6-3.15.92-3.77-.18-.06-.12-.04-.3.13-.16.21.18.59.27 1.06.27.4 0 .66-.02.88-.17a1.2 1.2 0 0 1-.44-.35c-.05-.09 0-.2.12-.18.7.1.87-.19.87-.41 0-.3-.15-.47-.38-.4-.13.02-.18-.05-.14-.1.14-.21-.04-.45-.37-.45-.24 0-.4.2-.6.5-.05.08-.2.05-.25-.02a.95.95 0 0 1-.07-.66c-.44.07-.74.53-.84 1-.02.08-.2.02-.2-.05-.03-.54-.5-1.69-1.72-1.63.25.35.36.62.47 1.12 0 .1-.12.12-.16.11a1.54 1.54 0 0 0-.98.12 1.9 1.9 0 0 1 1.9.8c.15.08.4.37.41.61"/><path clip-path="url(#b)" fill="#22185B" d="M32.36 16.38c-.14.12-.48.38-.66.5a.25.25 0 0 0-.11.2c0 .1.03.19.1.24l.65.54c.13.1.34.08.44 0 .1-.1.54-.4.66-.48a.25.25 0 0 0 .12-.2c0-.1-.04-.2-.12-.25-.12-.08-.5-.4-.61-.53a.3.3 0 0 0-.22-.1c-.05 0-.17 0-.25.08M28.52 17.82a6.93 6.93 0 0 1-.07-.48c.1-.05.17-.15.2-.28.3-.03.93-.12 1.19-.16.07.1.2.16.33.18.04.14.08.43.08.54-.1.07-.19.2-.23.28-.66.07-1.1.13-1.22.15-.05-.12-.13-.19-.28-.23M24.83 14.86c-.03-.42-.36-1.15-.62-1.33-.06-.04-.14-.04-.09.02.25.26.5.94.57 1.24.01.07.15.15.14.07M32.26 14.33c0-.22.15-.4.35-.4.22 0 .32.17.32.39 0 .34-.15.42-.34.42-.23 0-.33-.2-.33-.41M30.15 14.16c.18-.03 1.57 0 1.7.02.13.02.12.16.03.16l-1.68-.1c-.13.01-.14-.06-.05-.08M32.72 13.54c0 .06-.21.08-.2-.02l.04-1.75c0-.15.1-.16.11 0 .01.16.06 1.67.05 1.77M33.35 14.17c.09-.02 1.52.03 1.69.03.08 0 .1.09 0 .1-.19 0-1.48 0-1.65.03-.14.02-.17-.14-.04-.16M26.99 14.78c-.06.04-1.52.51-1.6.56-.07.04-.12-.1-.1-.12.06-.03 1.61-.49 1.66-.51.05-.03.1.02.04.07M40.33 14.86c.04-.42.4-1.1.57-1.3.04-.06.13-.05.08.02-.22.32-.43.9-.5 1.21-.02.07-.15.15-.15.07M38.18 14.78c.06.04 1.42.49 1.5.54.07.04.12-.1.1-.12-.06-.03-1.52-.47-1.57-.5-.05-.02-.1.03-.03.08M36.58 17.81l.07-.48a.48.48 0 0 1-.2-.28 37.8 37.8 0 0 1-1.19-.16.5.5 0 0 1-.33.18c-.04.14-.08.43-.08.54.1.07.19.2.23.28.66.07 1.1.13 1.22.15.05-.12.13-.19.28-.23M32.56 18.87c3.65.03 5.54.47 5.53.75 0 .18-.37.27-.42.27-.07.02-.12-.1-.05-.13.1-.03.17-.07.17-.13 0-.2-1.75-.55-5.23-.57-2.94-.02-5.11.38-5.12.61 0 .05.04.05.12.07.05.02.05.12 0 .11-.18 0-.44-.07-.44-.18 0-.44 2.95-.82 5.44-.8"/><path clip-path="url(#b)" fill="#FFEC00" d="M32.49 16.5c.01-.02.1-.03.13 0 .13.15.54.49.66.57.04.03.03.11.01.12-.12.08-.58.4-.7.5-.01.01-.1.02-.13 0-.19-.17-.5-.42-.66-.54-.03-.03-.03-.1 0-.13.19-.13.54-.38.69-.52M26.22 18.55c.03.02.07.02.13-.02.25-.19.65-.5.87-.64.03-.01 0-.13-.04-.13-.07 0-.68-.12-.97-.17-.05 0-.09.01-.1.05a.9.9 0 0 0 .11.91M39 17.55c0-.03-.05-.03-.12-.02-.34.03-.9.18-.97.2-.04.01-.06.14-.02.16.23.13.66.47.9.58.02.02.04 0 .06 0 .22-.12.27-.72.16-.92M28.7 17.73c.07.02.1.04.13.1.25-.05.8-.1 1.07-.13a.31.31 0 0 1 .1-.12c0-.13-.02-.3-.06-.41a.25.25 0 0 1-.13-.09l-1.07.16a.2.2 0 0 1-.1.11l.07.38M36.34 17.72a.2.2 0 0 0-.12.1l-1.07-.13a.31.31 0 0 0-.1-.11c0-.13.02-.31.05-.41.05-.01.1-.04.14-.09l1.07.15c.02.05.04.08.1.12l-.07.37"/><path clip-path="url(#b)" fill="#22185B" d="M41.41 35.74c-.06-1.95-.75-10-.79-12.9 0-.21-.03-.22-.2-.2l-.5.05v-.33c-.01-.08-.01-.1-.12-.08l-.45.03v-.65c-.4.13-1.19.18-1.55.18-1.44 0-2.25-.45-3.38-.45-.5 0-1.04.06-1.58.26-.16.06-.26.02-.37-.03a3.17 3.17 0 0 0-1.25-.23c-1.11 0-2.65.5-3.95.5-.72 0-1.3-.19-1.6-.36l-.03.54-.43-.03c-.1 0-.1 0-.1.12 0 .1 0 .19-.02.33-.08 0-.42-.02-.5-.04-.12-.02-.14 0-.14.19 0 .14-.96 13.06-.96 13.34 0 .36.04.47.43.34.75-.24 4.38-1.36 7.26-1.02-.25.94 3.07.95 2.93.02 2.63-.36 6.67.84 6.96.89.29.04.35-.1.34-.47"/><path clip-path="url(#b)" fill="#FFEC00" d="M32.19 34.96a6.17 6.17 0 0 0-2.49-.32c-2.47 0-4.2.78-5.45.6-.08 0-.12-.02-.11-.11.2-3.87.68-9.39.94-12.4l-.33-.03c-.05 0-.08 0-.08.05l-.94 13.07c-.01.14.02.2.13.17.1-.02 3.06-.98 5.8-.98.55 0 1.66.08 1.72.1.07 0 .04.04.03.09-.1.72 2.62.6 2.47.07-.01-.05-.03-.13.06-.15.1-.01.73-.11 1.49-.11 2.15 0 5.36.75 5.48.78.13.03.14-.08.14-.17l-.7-12.64c0-.07.03-.12-.04-.11h-.3c-.05 2.34.64 12.16.64 12.23s-.03.08-.09.1c-.18.03-.47.05-.78.05-1.08 0-2.97-.6-4.71-.6-.78 0-1.63.22-1.97.35-.35.14-.55.11-.91-.04"/><path clip-path="url(#b)" fill="#FFF" d="M32.49 22.12a.22.22 0 0 0-.09-.16c-.14-.12-.5-.35-1.07-.35-1.38 0-2.7.6-4.08.6-.52 0-.9-.1-1.28-.17-.04.69-.71 11.04-.82 12.23 1.14.21 2.34-.58 4.8-.58 1.47 0 2.43.48 2.59.56.14.07.2.07.36-.01a6.34 6.34 0 0 1 2.6-.53c1.65 0 3.2.8 4.13.55.08-3.96-.65-8.93-.64-12.18-.2.02-.83.09-1.12.09-1.42 0-2.3-.55-3.55-.55-.75 0-1.24.27-1.4.39-.05.04-.06.06-.06.14-.03 2.51-.02 9.34-.13 11.7 0 .15-.22.12-.22.01.08-2.68-.05-9.46-.02-11.74"/><path clip-path="url(#b)" fill="#FFF" d="M39.7 22.6c0-.05-.01-.07-.06-.07l-.29.01c.03 3.82.69 9.22.57 12.1-1.07.2-2.6-.53-4.5-.53a6.2 6.2 0 0 0-2.57.39c-.08.04-.19.03-.3-.02a7.67 7.67 0 0 0-2.62-.38c-2.78 0-3.57.6-5.05.51.2-3.38.61-9.56.75-12.31l-.19-.02c-.09 0-.08.02-.09.08-.3 3.4-.67 8.66-.93 12.52 0 .1-.02.1.04.1 1.54.2 2.83-.57 5.22-.57a7.1 7.1 0 0 1 2.73.4c.24.1.4.1.65-.01.58-.27 1.3-.36 1.98-.36 2.26 0 4.08.78 5.3.6.06-.01.06-.06.06-.11s-.63-10.42-.7-12.34"/><path clip-path="url(#b)" fill="#E2000F" d="M26.67 29.78c-.14-.01-.22-.1-.3-.1-.09 0-.23.02-.26.09-.04.1-.11.07-.11-.03s.07-3.04.06-3.14c0-.24-.03-.3-.25-.24-.03.02-.07-.1.01-.13.05-.02.59-.2.63-.2.04 0 .05.04.05.09v.3c.09-.14.2-.25.34-.37.06-.05.11-.09.19-.04.27.16.64.72.6 1.92 0 .4-.54 1.87-.96 1.85m.12-3.38c-.11 0-.21.12-.3.3-.02.7-.06 1.83-.12 2.67.26.06.25.18.31.18.05 0 .07 0 .11-.03.28-.21.43-.77.44-1.11.03-1.22-.26-2.01-.44-2.01"/><path clip-path="url(#b)" fill="#22185B" d="M28.21 29.6c-.02.11-.17.08-.17-.02l-.06-1.73c-.03-.18-.13-.2-.26-.23-.05 0-.07-.1 0-.13.05-.02.6-.23.64-.23.04 0 .05.03.05.08 0 .3-.07 1.68-.2 2.26m.01-2.71c-.05.13-.16.07-.17.01 0-.05-.07-.25-.09-.3-.02-.07-.09-.14-.11-.14-.03 0-.07-.04-.01-.08.02-.02.34-.14.43-.16.03-.01.06.02.05.05l-.1.62M29.08 29.57a.8.8 0 0 1-.57-.27c-.03-.03-.05-.05-.02-.07.04-.03.19-.28.22-.3.02-.04.03 0 .04.02.07.2.21.43.4.43.12 0 .27-.19.27-.4 0-.27-.82-.27-.82-.99 0-.2.07-.5.5-.79.06-.04.09-.05.1-.02.02.02.26.22.4.31.05.03.08.03.06.06a.67.67 0 0 1-.15.18c-.03.03-.1.03-.13.02-.1-.05-.28-.2-.34-.29 0-.01-.02-.02-.03 0-.1.09-.12.2-.12.34 0 .37.8.4.8.9-.01.33-.23.87-.6.87M30.44 29.56c-.44 0-.64-.5-.64-1.05 0-.48.39-.93.6-1.17.06-.06.1-.08.12-.05.01.02.24.28.36.38.02.02.14 0 .1.06a.82.82 0 0 1-.17.21c-.05.04-.15.05-.19.02a.95.95 0 0 1-.24-.29c0-.02-.02-.02-.03-.01a.97.97 0 0 0-.17.58c0 .71.2 1 .47 1 .15 0 .22-.13.31-.25.03-.05.06 0 .04.05-.16.3-.25.52-.56.52M31.67 29.56c-.44 0-.64-.5-.64-1.04 0-.49.3-.94.52-1.18.06-.06.16-.06.2-.05.1.04.51.38.51.65 0 .1-.6.61-.84.78.07.38.24.55.44.55a.5.5 0 0 0 .44-.25c.03-.05.07.01.05.05-.18.32-.37.5-.68.5m-.06-1.98c-.04-.03-.06-.01-.07.01-.1.18-.16.43-.16.65 0 .12 0 .23.02.33.16-.14.45-.43.45-.63 0-.12-.14-.27-.24-.36"/><path clip-path="url(#b)" fill="#E2000F" d="M33.94 29.73c-.14 0-.22-.09-.31-.09s-.2 0-.26.05c-.01.05-.1.1-.1-.01l-.03-3.1c0-.2-.07-.25-.25-.22-.05 0-.09-.07-.01-.1a6 6 0 0 1 .59-.24c.08 0 .1.04.1.1v.23c.09-.13.19-.24.34-.37.06-.05.1-.08.18-.04.4.23.69.77.69 2.02 0 .54-.53 1.77-.94 1.77m-.01-3.4c-.1 0-.19.12-.26.27 0 .67 0 1.83-.04 2.7.25.05.25.2.32.2.05 0 .07 0 .1-.04.3-.24.4-.82.4-1.26 0-1.42-.3-1.87-.52-1.87"/><path clip-path="url(#b)" fill="#22185B" d="M35.64 29.56c-.35 0-.62-.54-.62-1.1 0-.58.44-1.18.77-1.18.38 0 .63.6.63 1.1 0 .47-.43 1.18-.78 1.18m-.05-2c-.15 0-.25.26-.25.47 0 .74.32 1.21.47 1.21.2 0 .28-.22.28-.45 0-.65-.3-1.23-.5-1.23M37.24 29.56c-.4 0-.64-.57-.64-1.05 0-.48.3-.94.58-1.18.11-.08.12-.09.19-.02 0 .02.18.26.3.36.02.02.12.03.09.1a.68.68 0 0 1-.16.19c-.05.03-.14.04-.19.01-.11-.06-.18-.24-.26-.35h-.03c-.13.09-.18.27-.18.5 0 .7.24 1.13.51 1.13.15 0 .25-.11.33-.23.04-.06.08.02.05.06-.15.24-.28.48-.6.48M38.56 29.56c-.4 0-.7-.47-.7-.96 0-.53.3-1.02.62-1.3.06-.04.14-.02.17-.01.21.07.53.51.53.8 0 .1-.65.46-.92.58.09.37.3.56.5.56s.34-.1.44-.24c.03-.05.07.03.04.07-.2.29-.37.5-.68.5m-.06-1.94c-.03-.03-.06-.02-.07 0-.15.13-.21.4-.21.63 0 .11 0 .21.02.3.2-.1.48-.29.48-.46 0-.2-.07-.35-.22-.47"/></svg>